<svg width="132" height="20" viewBox="0 0 132 20" fill="none" xmlns="http://www.w3.org/2000/svg">
<path d="M11.4421 2.9252L12.9087 5.85853C13.1087 6.26686 13.6421 6.65853 14.0921 6.73353L16.7504 7.1752C18.4504 7.45853 18.8504 8.69186 17.6254 9.90853L15.5587 11.9752C15.2087 12.3252 15.0171 13.0002 15.1254 13.4835L15.7171 16.0419C16.1837 18.0669 15.1087 18.8502 13.3171 17.7919L10.8254 16.3169C10.3754 16.0502 9.63375 16.0502 9.17541 16.3169L6.68375 17.7919C4.90041 18.8502 3.81708 18.0585 4.28375 16.0419L4.87541 13.4835C4.98375 13.0002 4.79208 12.3252 4.44208 11.9752L2.37541 9.90853C1.15875 8.69186 1.55041 7.45853 3.25041 7.1752L5.90875 6.73353C6.35041 6.65853 6.88375 6.26686 7.08375 5.85853L8.55041 2.9252C9.35041 1.33353 10.6504 1.33353 11.4421 2.9252Z" fill="#FDB073" stroke="#FDB073" stroke-width="1.5" stroke-linecap="round" stroke-linejoin="round"/>
<path d="M39.4421 2.9252L40.9087 5.85853C41.1087 6.26686 41.6421 6.65853 42.0921 6.73353L44.7504 7.1752C46.4504 7.45853 46.8504 8.69186 45.6254 9.90853L43.5587 11.9752C43.2087 12.3252 43.0171 13.0002 43.1254 13.4835L43.7171 16.0419C44.1837 18.0669 43.1087 18.8502 41.3171 17.7919L38.8254 16.3169C38.3754 16.0502 37.6337 16.0502 37.1754 16.3169L34.6837 17.7919C32.9004 18.8502 31.8171 18.0585 32.2837 16.0419L32.8754 13.4835C32.9837 13.0002 32.7921 12.3252 32.4421 11.9752L30.3754 9.90853C29.1587 8.69186 29.5504 7.45853 31.2504 7.1752L33.9087 6.73353C34.3504 6.65853 34.8837 6.26686 35.0837 5.85853L36.5504 2.9252C37.3504 1.33353 38.6504 1.33353 39.4421 2.9252Z" fill="#FDB073" stroke="#FDB073" stroke-width="1.5" stroke-linecap="round" stroke-linejoin="round"/>
<path d="M67.4421 2.9252L68.9087 5.85853C69.1087 6.26686 69.6421 6.65853 70.0921 6.73353L72.7504 7.1752C74.4504 7.45853 74.8504 8.69186 73.6254 9.90853L71.5587 11.9752C71.2087 12.3252 71.0171 13.0002 71.1254 13.4835L71.7171 16.0419C72.1837 18.0669 71.1087 18.8502 69.3171 17.7919L66.8254 16.3169C66.3754 16.0502 65.6337 16.0502 65.1754 16.3169L62.6837 17.7919C60.9004 18.8502 59.8171 18.0585 60.2837 16.0419L60.8754 13.4835C60.9837 13.0002 60.7921 12.3252 60.4421 11.9752L58.3754 9.90853C57.1587 8.69186 57.5504 7.45853 59.2504 7.1752L61.9087 6.73353C62.3504 6.65853 62.8837 6.26686 63.0837 5.85853L64.5504 2.9252C65.3504 1.33353 66.6504 1.33353 67.4421 2.9252Z" fill="#FDB073" stroke="#FDB073" stroke-width="1.5" stroke-linecap="round" stroke-linejoin="round"/>
<path d="M95.4421 2.9252L96.9087 5.85853C97.1087 6.26686 97.6421 6.65853 98.0921 6.73353L100.75 7.1752C102.45 7.45853 102.85 8.69186 101.625 9.90853L99.5587 11.9752C99.2087 12.3252 99.0171 13.0002 99.1254 13.4835L99.7171 16.0419C100.184 18.0669 99.1087 18.8502 97.3171 17.7919L94.8254 16.3169C94.3754 16.0502 93.6337 16.0502 93.1754 16.3169L90.6837 17.7919C88.9004 18.8502 87.8171 18.0585 88.2837 16.0419L88.8754 13.4835C88.9837 13.0002 88.7921 12.3252 88.4421 11.9752L86.3754 9.90853C85.1587 8.69186 85.5504 7.45853 87.2504 7.1752L89.9087 6.73353C90.3504 6.65853 90.8837 6.26686 91.0837 5.85853L92.5504 2.9252C93.3504 1.33353 94.6504 1.33353 95.4421 2.9252Z" fill="#FDB073" stroke="#FDB073" stroke-width="1.5" stroke-linecap="round" stroke-linejoin="round"/>
<path d="M123.442 2.9252L124.909 5.85853C125.109 6.26686 125.642 6.65853 126.092 6.73353L128.75 7.1752C130.45 7.45853 130.85 8.69186 129.625 9.90853L127.559 11.9752C127.209 12.3252 127.017 13.0002 127.125 13.4835L127.717 16.0419C128.184 18.0669 127.109 18.8502 125.317 17.7919L122.825 16.3169C122.375 16.0502 121.634 16.0502 121.175 16.3169L118.684 17.7919C116.9 18.8502 115.817 18.0585 116.284 16.0419L116.875 13.4835C116.984 13.0002 116.792 12.3252 116.442 11.9752L114.375 9.90853C113.159 8.69186 113.55 7.45853 115.25 7.1752L117.909 6.73353C118.35 6.65853 118.884 6.26686 119.084 5.85853L120.55 2.9252C121.35 1.33353 122.65 1.33353 123.442 2.9252Z" fill="#FDB073" stroke="#FDB073" stroke-width="1.5" stroke-linecap="round" stroke-linejoin="round"/>
</svg>
